<?xml version="1.0" encoding="utf-8"?>
<!-- Generator: Adobe Illustrator 24.0.1, SVG Export Plug-In . SVG Version: 6.00 Build 0)  -->
<svg version="1.1" id="Layer_1" xmlns="http://www.w3.org/2000/svg" xmlns:xlink="http://www.w3.org/1999/xlink" x="0px" y="0px"
	 viewBox="0 0 1190.55 380.02" style="enable-background:new 0 0 1190.55 380.02;" xml:space="preserve">
<style type="text/css">
	.st0{fill:#EF7D00;}
	.st1{fill:url(#SVGID_1_);}
	.st2{fill:url(#SVGID_2_);}
	.st3{fill:url(#SVGID_3_);}
</style>
<g>
	<path class="st0" d="M1040.45,132.34c-1.02,1.82-1.68,3.71-1.85,5.79c0,0.16,0.07,0.36,0.21,0.48c0.15,0.12,0.35,0.18,0.51,0.13
		c2-0.52,3.76-1.45,5.36-2.76l0,0c1.78,1.04,3.66,1.69,5.73,1.86c0.14,0.01,0.35-0.06,0.46-0.21c0.13-0.14,0.17-0.36,0.14-0.51
		c-0.5-2.03-1.44-3.81-2.73-5.42c1.02-1.8,1.67-3.71,1.85-5.78c0-0.17-0.07-0.37-0.21-0.5c-0.14-0.12-0.35-0.16-0.5-0.13
		c-2.01,0.51-3.77,1.45-5.37,2.76c-1.77-1.03-3.67-1.69-5.73-1.85c-0.14-0.02-0.35,0.06-0.48,0.21c-0.13,0.14-0.15,0.35-0.13,0.5
		C1038.23,128.96,1039.15,130.73,1040.45,132.34z"/>
	<radialGradient id="SVGID_1_" cx="995.3503" cy="190.0796" r="135.48" gradientUnits="userSpaceOnUse">
		<stop  offset="0.4785" style="stop-color:#FFCD00"/>
		<stop  offset="0.495" style="stop-color:#FECA00"/>
		<stop  offset="0.7291" style="stop-color:#F6A200"/>
		<stop  offset="0.9044" style="stop-color:#F18700"/>
		<stop  offset="1" style="stop-color:#EF7D00"/>
	</radialGradient>
	<path class="st1" d="M1020.32,261.74c-2.5,6.79-12.07,16.42-15.26,17.74c-5.4,2.27-24.2,3.69-39.03,2.62
		c-0.31,0-0.61-0.18-0.61-0.6c-2.17-10.28-6.89-23.12-10.78-29.81c16.56,11.19,41.15,16.31,64.57,8.52
		C1019.68,260.54,1020.18,261.33,1020.32,261.74z M961.87,282.38c-0.46-3.1-6.43-28.07-17.96-39.23
		c-10.49-10.17-19.65-24.62-22.73-45.63c-0.5-0.28-1.61-0.62-2.29-0.72c-3.6,5.21-5.96,21.8-5.57,26.22
		c1.47,16.58,8.97,27.95,14.22,34.86c-1.35,1.02-3.35,1.53-5.4,0.95c-2.3-3.01-7.57-10.68-15.03-10.96
		c-3.22-0.12-8.52,2.29-9.22,8.75c-0.13,1.23-1.2,2.29-2.99,2.25c-11.96-0.32-22.12,0.21-32.6,2.22c-0.28,0.39-0.21,0.93,0.12,1.2
		c34.53-1.76,72.7,11.05,77.92,16.1c5.73,5.54,14.32,27.81,9.8,55.79c0.49,0.35,1.39,0.65,2.1,0.72
		C959.54,318.42,962.92,289.54,961.87,282.38z"/>
	<radialGradient id="SVGID_2_" cx="992.3212" cy="182.1248" r="140.1407" gradientUnits="userSpaceOnUse">
		<stop  offset="0.4807" style="stop-color:#D5122C"/>
		<stop  offset="0.6116" style="stop-color:#C7184B"/>
		<stop  offset="0.7463" style="stop-color:#B91964"/>
		<stop  offset="0.8608" style="stop-color:#AD1975"/>
		<stop  offset="0.9489" style="stop-color:#A6197E"/>
		<stop  offset="1" style="stop-color:#A31981"/>
	</radialGradient>
	<path class="st2" d="M965.3,120.76c-13.98,6.39-32.07,19.3-40.89,45.66c-0.53,0.11-2.01-0.18-2.39-0.41
		c0.43-3.68,5.18-26.76,21.51-46.93c0.79-0.95,0.17-2.22-0.81-2.55c-16.51-5.51-31.39-16.34-34.17-20.35
		c-1.47-2.13-6.48-13.8-6.15-26.33c0.33-0.53,1.29-1.32,2.03-1.48c18.19,12.67,46.56,27.41,62.98,32.56
		c3.3,1.04,5.91,2.21,8.51,0.13c5.14-4.14,10.46-6.24,16.24-4.89c3.15,0.74,7.46,4.2,7.46,11.59c0,0.8,0.42,2.36,2.18,2.64
		c11.18,1.77,21.57,6.16,29.9,11.77c0.16,0.49-0.16,0.95-0.64,1.02C1006.18,109.94,981.04,113.55,965.3,120.76z M971.92,98.42
		c1.51,0.38,2.64-0.74,2.12-2.22c-5.38-15.36-9.13-38.87-9.13-54.23c-0.31-0.27-1.27-0.63-1.82-0.71
		c-6.1,2.92-12.03,11.48-13.1,13.43c-1.85,3.37-4.8,22.39-1.15,34.72C954.35,92.23,966.92,97.17,971.92,98.42z"/>
	<radialGradient id="SVGID_3_" cx="995.7725" cy="189.6543" r="147.1533" gradientUnits="userSpaceOnUse">
		<stop  offset="0.4771" style="stop-color:#7EBA2A"/>
		<stop  offset="0.61" style="stop-color:#6CB653"/>
		<stop  offset="0.8774" style="stop-color:#37B094"/>
		<stop  offset="1" style="stop-color:#00AEAA"/>
	</radialGradient>
	<path class="st3" d="M1080.02,226.38c-1.44,0.12-2.51,0.9-3.28,1.92c-12.81,16.96-33.11,25.92-43.33,29.44
		c-0.91-0.6-1.72-1.62-2.35-2.61c23.51-13.06,33.08-32.27,37.07-47.02c4.45-16.4,4.16-41.45-12.84-64.27
		c0.17-0.41,0.53-0.66,0.95-0.73c6.68,7.27,12.74,16.15,16.17,26.95c0.42,1.28,1.47,1.84,2.83,1.68c7.41-0.88,11.67,2,13.09,5.77
		c2,5.39-2.62,12.53-6.79,18.58c-0.24,1.78,0.56,3.24,1.85,3.73c22.26-4.19,45.9-16.54,61.2-28.27c0.64,0.18,1.83,1.02,2.16,1.49
		c0.69,8.21-8.14,28.68-12,32.43C1127.35,212.64,1104.19,222.3,1080.02,226.38z M1079.83,231.13c7.9,9.54,24.81,19.64,28.04,20.64
		c3.07,0.93,17.27,2.85,25.66,0.46c0.79-0.42,1.42-1.76,1.33-2.71c-9.47-6.44-19.9-17.07-26.94-26.5c-7.47,2.53-16.85,5.3-27.2,6.92
		C1079.48,230.15,1079.56,230.8,1079.83,231.13z"/>
</g>
<g>
	<path d="M729.25,217.48c-3.89,0-7.48-1.92-9.91-5.09c-0.41-0.53-30.14-35.27-30.14-35.27l-8.86,73.72h-34.58L659,140.77
		c1.73-14.55,19.13-19.17,27.48-8.01c0,0,38.39,45.47,40.33,48.03c0.68,0.93,1.53,1.24,2.45,1.24c0.93,0,1.77-0.31,2.48-1.24
		c1.92-2.57,40.32-48.03,40.32-48.03c8.34-11.15,25.74-6.53,27.48,8.01l13.24,110.07h-34.6l-8.85-73.72c0,0-29.73,34.73-30.14,35.27
		C736.74,215.56,733.15,217.48,729.25,217.48z M413.68,227.16c-27.59,0-39.45-10.45-39.45-37.43c0-26.98,11.86-37.41,39.45-37.41
		c15.52,0,29.12,4.31,41.15,9.82l8.44-23.72c-12.81-6-30.77-11.85-53.66-11.85c-48.42,0-71.3,23.51-71.3,63.16
		c0,39.65,22.87,63.16,71.3,63.16c22.89,0,41.88-5.86,53.66-11.83l-8.44-23.72C443.83,222.62,429.2,227.16,413.68,227.16z
		 M148.28,183.5c0,0-37.28-12.32-44.65-14.92c-7.63-2.67-10.29-7.32-8.82-11.16c1.66-4.31,6.65-6.19,22.92-5.26
		c15.19,0.87,34.4,4.61,45.45,7.94l8.58-23.73c-9.33-3.22-34.2-9.53-54.56-9.82c-12.01-0.15-49.24-2.41-57.13,27.15
		c-4.29,16.03,1.8,34.76,28.65,43.33c10.04,3.22,29.49,9.22,35.43,11.07c8.97,2.75,12.12,7.39,11.11,12.46
		c-1.09,5.49-7.09,7.13-18.63,6.69c-16.1-0.65-36.91-5.14-53.82-10.58l-8.32,23.92c21.43,7.51,42.04,12.25,62.67,12.25
		c35.89,0,54.08-7.02,58.38-29.35C178.68,207.13,169.72,191.73,148.28,183.5z M242.64,155.13c1.74,0,73.46,0,73.46,0l1.85-26.51
		h-89.52c-11.78,0-24.56,9.68-24.56,24.43v73.32c0,14.57,12.46,24.44,24.56,24.44h89.52l-1.85-26.5h-73.48
		c-2.54,0-4.19-1.95-4.19-4.08v-18.27h51.06v-26.49h-51.06v-16.28C238.43,156.94,240.21,155.13,242.64,155.13z M478.8,189.74
		c0,39.65,24.9,63.16,73.32,63.16c48.44,0,73.34-23.51,73.34-63.16c0-39.65-24.9-63.16-73.34-63.16
		C503.7,126.58,478.8,150.09,478.8,189.74z M552.12,152.32c27.59,0,37.42,10.44,37.42,37.41c0,26.98-9.83,37.43-37.42,37.43
		c-27.57,0-37.41-10.45-37.41-37.43C514.71,162.76,524.55,152.32,552.12,152.32z"/>
	<path d="M844.82,126.47c-9.8,0-17.68,7.9-17.68,17.68c0,9.8,7.88,17.63,17.68,17.63c9.81,0,17.75-7.83,17.75-17.63
		C862.57,134.36,854.63,126.47,844.82,126.47z M844.82,159.08c-8.27,0-14.91-6.64-14.91-14.93c0-8.28,6.64-15.05,14.91-15.05
		c8.29,0,15.07,6.78,15.07,15.05C859.89,152.44,853.11,159.08,844.82,159.08z M851.9,152.36l-4.39-7.12
		c2.4-0.68,3.83-2.22,3.83-5.13v-0.23c0-4.33-2.75-5.76-7.47-5.76c-1.25,0-3.47,0.05-4.34,0.17c-0.69,0.05-1.02,0.51-1.02,1.25
		v17.22c0,0.39,0.28,0.85,0.74,0.85h1.43c0.46,0,0.8-0.45,0.8-0.85v-7.08h2.28l0.68,0.18l4.63,7.29c0.11,0.22,0.4,0.45,0.68,0.45
		h1.6c0.51,0,0.69-0.34,0.69-0.74C852.02,152.69,851.97,152.46,851.9,152.36z M844.04,143.23c-0.46,0-2-0.06-2.63-0.06v-6.38
		c0.17,0,0.46,0,0.8,0c0.63,0,1.37,0,1.82,0c3.14,0,4.44,0.8,4.44,3.08v0.23C848.48,142.38,847.22,143.23,844.04,143.23z"/>
</g>
</svg>
